# xmcd CD database file
#
# Track frame offsets:
#	150
#	72930
#	139284
#	213459
#	256614
#
# Disc length: 3947 seconds
#
# Revision: 0
# Processed by: cddbd v1.5.1PL0 Copyright (c) Steve Scherf et al.
# Submitted via: CDex 1.51
#
DISCID=470f6905
DTITLE=Fridrik Karlsson - Harmony
DYEAR=2001
DGENRE=New Age
TTITLE0=Well of Healing
TTITLE1=Harmony
TTITLE2=Fantasy
TTITLE3=Breeze of Light
TTITLE4=Astral Colours
EXTD=YEAR: 2001
EXTT0=
EXTT1=
EXTT2=
EXTT3=
EXTT4=
PLAYORDER=
